<?xml version="1.0" encoding="utf-8"?>
<!-- Generator: Adobe Illustrator 15.1.0, SVG Export Plug-In . SVG Version: 6.00 Build 0)  -->
<!DOCTYPE svg PUBLIC "-//W3C//DTD SVG 1.1//EN" "http://www.w3.org/Graphics/SVG/1.1/DTD/svg11.dtd">
<svg version="1.1" id="Layer_1" xmlns="http://www.w3.org/2000/svg" xmlns:xlink="http://www.w3.org/1999/xlink" x="0px" y="0px"
	 width="85px" height="79.059px" viewBox="0 0 85 79.059" enable-background="new 0 0 85 79.059" xml:space="preserve">
<g id="g54428" transform="translate(63.5239,133.5215)">
	<path id="path54430" inkscape:connector-curvature="0" fill="#007EE5" d="M-38.52-133.521l-25.003,16.325l17.288,13.845
		l25.211-15.567L-38.52-133.521z"/>
</g>
<g id="g54432" transform="translate(32.8325,79.4932)">
	<path id="path54434" inkscape:connector-curvature="0" fill="#007EE5" d="M-32.833-35.478l25.003,16.326L9.667-33.757
		l-25.21-15.566L-32.833-35.478z"/>
</g>
<g id="g54436" transform="translate(84.9995,77.3799)">
	<path id="path54438" inkscape:connector-curvature="0" fill="#007EE5" d="M-42.5-31.642l17.497,14.604L0-33.364l-17.289-13.845
		L-42.5-31.642z"/>
</g>
<g id="g54440" transform="translate(137.1675,113.4824)">
	<path id="path54442" inkscape:connector-curvature="0" fill="#007EE5" d="M-52.167-97.157l-25.004-16.325l-17.497,14.603
		l25.211,15.567L-52.167-97.157z"/>
</g>
<g id="g54444" transform="translate(85.063,73.5234)">
	<path id="path54446" inkscape:connector-curvature="0" fill="#007EE5" d="M-42.512-24.645l-17.547,14.561l-7.509-4.902v5.496
		l25.056,15.025L-17.456-9.49v-5.496l-7.509,4.902L-42.512-24.645z"/>
</g>
</svg>
