<?xml version="1.0" encoding="utf-8"?>
<!-- Generator: Adobe Illustrator 15.1.0, SVG Export Plug-In . SVG Version: 6.00 Build 0)  -->
<!DOCTYPE svg PUBLIC "-//W3C//DTD SVG 1.1//EN" "http://www.w3.org/Graphics/SVG/1.1/DTD/svg11.dtd">
<svg version="1.1" id="Layer_1" xmlns="http://www.w3.org/2000/svg" xmlns:xlink="http://www.w3.org/1999/xlink" x="0px" y="0px"
	 width="473.5px" height="176.063px" viewBox="56.5 0 473.5 176.063" enable-background="new 56.5 0 473.5 176.063"
	 xml:space="preserve">
<g>
	<g>
		<path fill="#CCCCCC" d="M240.327,76.801l-5.218-48.509l-22.36,48.509h-3.976l-24.285-48.509l-4.286,48.509h-5.652l6.522-64.037
			h5.218L212.189,65l24.287-52.236h5.279l7.081,64.037H240.327z"/>
		<path fill="#CCCCCC" d="M276.175,77.607c-6.667,0-11.771-1.873-15.311-5.621c-3.541-3.747-5.312-9.223-5.312-16.43
			c0-3.395,0.436-6.47,1.305-9.222c0.869-2.755,2.174-5.085,3.912-6.989c1.738-1.903,3.893-3.374,6.459-4.41
			c2.567-1.033,5.549-1.552,8.944-1.552c3.354,0,6.313,0.488,8.882,1.459c2.567,0.974,4.721,2.402,6.459,4.286
			c1.739,1.885,3.043,4.192,3.912,6.926c0.87,2.732,1.305,5.859,1.305,9.379c0,3.438-0.435,6.521-1.305,9.256
			c-0.869,2.73-2.173,5.062-3.912,6.986c-1.738,1.928-3.894,3.396-6.459,4.409C282.488,77.098,279.529,77.607,276.175,77.607z
			 M264.436,55.495c0,3.106,0.217,5.757,0.653,7.95c0.435,2.197,1.117,3.996,2.05,5.404c0.933,1.407,2.131,2.443,3.603,3.104
			c1.47,0.664,3.239,0.994,5.312,0.994c1.696,0,3.168-0.165,4.409-0.498c1.242-0.33,2.484-0.952,3.728-1.862
			c1.449-1.076,2.424-2.949,2.918-5.62c0.498-2.672,0.746-5.808,0.746-9.411c0-6.045-0.922-10.468-2.764-13.261
			c-1.843-2.795-4.771-4.191-8.787-4.191c-1.658,0-3.139,0.164-4.441,0.497c-1.305,0.331-2.537,0.912-3.696,1.739
			c-0.704,0.498-1.284,1.253-1.739,2.267c-0.455,1.017-0.838,2.197-1.149,3.541c-0.311,1.347-0.528,2.826-0.651,4.441
			C264.498,52.205,264.436,53.839,264.436,55.495z"/>
		<path fill="#CCCCCC" d="M332.677,41.583c-0.786-0.372-1.72-0.767-2.795-1.18c-1.077-0.413-2.185-0.777-3.323-1.088
			c-1.139-0.31-2.258-0.569-3.354-0.776c-1.098-0.207-2.04-0.311-2.828-0.311c-0.992,0-1.977,0.166-2.949,0.498
			c-0.973,0.331-1.937,0.912-2.889,1.74c-0.456,0.412-0.9,0.973-1.335,1.675c-0.435,0.707-0.819,1.667-1.149,2.891
			c-0.332,1.221-0.59,2.741-0.777,4.565c-0.187,1.822-0.279,4.036-0.279,6.646c0,2.981,0.227,5.467,0.684,7.452
			c0.457,1.988,1.149,3.572,2.079,4.75c0.933,1.182,2.093,2.021,3.479,2.519s2.99,0.745,4.813,0.745
			c2.069,0,4.223-0.248,6.458-0.745c2.238-0.496,4.265-1.159,6.091-1.987l1.116,2.547c-1.077,0.787-2.243,1.555-3.509,2.297
			c-1.266,0.746-2.6,1.398-4.007,1.959c-1.407,0.559-2.88,1.003-4.411,1.337c-1.531,0.329-3.127,0.495-4.781,0.495
			c-2.359,0-4.576-0.37-6.646-1.116c-2.069-0.746-3.871-1.946-5.401-3.604c-1.532-1.652-2.733-3.818-3.603-6.49
			c-0.871-2.67-1.305-5.91-1.305-9.719c0-3.644,0.455-6.904,1.367-9.783c0.91-2.877,2.244-5.319,4.006-7.329
			c1.76-2.007,3.943-3.54,6.553-4.597c2.609-1.056,5.611-1.583,9.006-1.583c2.031,0,4.08,0.115,6.15,0.342s3.977,0.506,5.715,0.838
			L332.677,41.583z"/>
		<path fill="#CCCCCC" d="M350.895,76.801h-8.387V7.111l8.387-2.112v42.36c0,0.293,0,0.695,0,1.213c0,0.517-0.013,1.054-0.031,1.613
			c-0.021,0.56-0.043,1.086-0.063,1.584c-0.02,0.496-0.031,0.869-0.031,1.116c1.117-1.282,2.328-2.64,3.635-4.067
			c1.304-1.428,2.586-2.826,3.851-4.192c1.263-1.366,2.463-2.64,3.603-3.82c1.139-1.18,2.121-2.164,2.949-2.95
			c1.367-1.282,2.661-2.276,3.883-2.98c1.223-0.706,2.785-1.058,4.688-1.058c0.622,0,1.336,0.042,2.142,0.124
			c0.811,0.084,1.398,0.227,1.771,0.434v2.609h-0.248c-0.912,0-1.752,0.093-2.518,0.279c-0.767,0.188-1.51,0.468-2.235,0.84
			c-0.726,0.371-1.46,0.85-2.206,1.429c-0.744,0.579-1.552,1.264-2.421,2.05c-0.415,0.372-1.036,0.972-1.863,1.801
			c-0.827,0.829-1.655,1.679-2.483,2.548c-0.993,1.032-2.049,2.108-3.166,3.229c0.703,1.117,1.49,2.492,2.358,4.131
			c0.869,1.636,1.812,3.363,2.827,5.186c1.014,1.823,2.092,3.625,3.229,5.404c1.139,1.78,2.34,3.395,3.604,4.844
			c1.262,1.45,2.566,2.623,3.913,3.512c1.344,0.89,2.742,1.337,4.19,1.337h0.621v2.795c-0.912,0.332-1.987,0.599-3.229,0.807
			c-1.242,0.207-2.445,0.312-3.603,0.312c-2.235,0-4.203-0.674-5.9-2.019c-1.697-1.346-3.291-3.096-4.782-5.249
			c-1.489-2.152-2.938-4.586-4.347-7.298s-2.941-5.414-4.598-8.104l-3.541,3.539v18.446L350.895,76.801L350.895,76.801z"/>
		<path fill="#CCCCCC" d="M428.624,59.596c0,2.816-0.426,5.321-1.271,7.518c-0.853,2.195-2.175,4.068-3.978,5.621
			c-1.802,1.553-4.131,2.731-6.988,3.539c-2.855,0.809-6.271,1.211-10.248,1.211c-1.325,0-2.795-0.021-4.409-0.062
			c-1.614-0.043-3.262-0.104-4.938-0.187c-1.676-0.086-3.321-0.188-4.938-0.313c-1.614-0.123-3.082-0.248-4.408-0.373v-62.92
			c2.482-0.289,5.123-0.497,7.919-0.621c2.795-0.124,5.58-0.186,8.354-0.186c3.395,0,6.438,0.291,9.129,0.869
			c2.691,0.58,4.989,1.471,6.896,2.672c1.906,1.201,3.364,2.763,4.379,4.688c1.015,1.925,1.521,4.214,1.521,6.863
			c0,2.153-0.342,4.059-1.024,5.714c-0.683,1.656-1.596,3.086-2.733,4.286c-1.138,1.201-2.441,2.185-3.911,2.951
			c-1.472,0.767-2.972,1.335-4.503,1.708v0.187c2.566,0.539,4.805,1.335,6.709,2.39c1.903,1.059,3.479,2.311,4.721,3.76
			c1.242,1.447,2.174,3.084,2.796,4.906C428.314,55.643,428.624,57.568,428.624,59.596z M416.7,28.912
			c0-2.07-0.321-3.829-0.964-5.28c-0.644-1.449-1.553-2.639-2.73-3.571c-1.181-0.932-2.621-1.616-4.318-2.05
			c-1.697-0.434-3.603-0.652-5.713-0.652c-0.955,0-1.761,0.011-2.423,0.032c-0.663,0.021-1.253,0.053-1.77,0.093
			c-0.521,0.042-0.986,0.084-1.398,0.124c-0.414,0.042-0.852,0.084-1.302,0.123v23.106h8.259c1.697,0,3.24-0.156,4.627-0.467
			c1.389-0.31,2.557-0.713,3.513-1.21c0.454-0.249,0.929-0.611,1.429-1.087c0.496-0.476,0.951-1.12,1.365-1.928
			c0.413-0.808,0.756-1.801,1.024-2.981C416.565,31.985,416.7,30.57,416.7,28.912z M419.619,59.348c0-2.524-0.426-4.679-1.273-6.461
			c-0.85-1.779-1.986-3.229-3.417-4.348c-1.428-1.119-3.095-1.928-4.999-2.423c-1.904-0.497-3.912-0.746-6.024-0.746h-7.826v26.896
			c0.912,0.084,2.121,0.195,3.634,0.342c1.51,0.146,3.177,0.217,5,0.217c0.91,0,1.863-0.03,2.856-0.094
			c0.993-0.061,1.956-0.162,2.889-0.31c0.932-0.146,1.791-0.321,2.58-0.528c0.783-0.207,1.428-0.455,1.925-0.746
			c0.538-0.289,1.075-0.683,1.616-1.181c0.537-0.498,1.031-1.198,1.487-2.11c0.457-0.91,0.827-2.051,1.119-3.418
			C419.474,63.074,419.619,61.375,419.619,59.348z"/>
		<path fill="#CCCCCC" d="M454.43,77.607c-6.667,0-11.77-1.873-15.31-5.621c-3.541-3.747-5.312-9.223-5.312-16.43
			c0-3.395,0.435-6.47,1.303-9.222c0.869-2.755,2.175-5.085,3.913-6.989c1.739-1.903,3.893-3.374,6.46-4.41
			c2.567-1.033,5.549-1.552,8.943-1.552c3.354,0,6.313,0.488,8.881,1.459c2.567,0.974,4.722,2.402,6.461,4.286
			c1.739,1.885,3.043,4.192,3.912,6.926c0.87,2.732,1.305,5.859,1.305,9.379c0,3.438-0.436,6.521-1.305,9.256
			c-0.869,2.73-2.173,5.062-3.912,6.986c-1.739,1.928-3.894,3.396-6.461,4.409C460.744,77.102,457.784,77.607,454.43,77.607z
			 M442.69,55.495c0,3.106,0.219,5.757,0.649,7.95c0.437,2.197,1.12,3.996,2.051,5.404c0.933,1.407,2.135,2.443,3.603,3.104
			c1.472,0.664,3.24,0.994,5.312,0.994c1.696,0,3.167-0.165,4.409-0.498c1.242-0.33,2.483-0.952,3.729-1.862
			c1.447-1.076,2.422-2.949,2.919-5.62c0.497-2.672,0.747-5.808,0.747-9.411c0-6.045-0.923-10.468-2.767-13.261
			c-1.842-2.795-4.771-4.191-8.787-4.191c-1.654,0-3.138,0.164-4.44,0.497c-1.304,0.331-2.537,0.912-3.695,1.739
			c-0.705,0.498-1.284,1.253-1.739,2.267c-0.456,1.017-0.839,2.197-1.148,3.541c-0.313,1.347-0.527,2.826-0.652,4.441
			C442.753,52.205,442.69,53.839,442.69,55.495z"/>
		<path fill="#CCCCCC" d="M502.111,52.391c1.572,2.857,3.096,5.579,4.564,8.168c1.471,2.59,2.878,4.866,4.225,6.834
			c1.345,1.965,2.617,3.539,3.818,4.719c1.199,1.18,2.339,1.771,3.417,1.771c0.454,0,0.796-0.012,1.024-0.031
			c0.226-0.021,0.505-0.072,0.839-0.158v2.484c-0.828,0.291-1.833,0.528-3.012,0.715c-1.183,0.187-2.435,0.279-3.76,0.279
			c-1.78,0-3.322-0.396-4.628-1.18c-1.304-0.786-2.548-1.936-3.728-3.449c-1.18-1.511-2.39-3.386-3.632-5.621
			c-1.242-2.234-2.692-4.803-4.35-7.699c-1.366,2.193-2.682,4.356-3.942,6.49c-1.265,2.133-2.548,4.057-3.854,5.775
			c-1.302,1.719-2.7,3.105-4.189,4.162c-1.491,1.056-3.146,1.582-4.971,1.582c-1.449,0-2.855-0.291-4.223-0.869v-2.549h0.683
			c1.614,0,3.097-0.401,4.44-1.209c1.345-0.81,2.691-1.996,4.038-3.572c1.345-1.572,2.785-3.527,4.318-5.869
			c1.53-2.339,3.292-5.041,5.277-8.107c-1.615-2.896-3.044-5.466-4.287-7.699c-1.24-2.235-2.371-4.121-3.385-5.652
			c-1.016-1.532-1.998-2.681-2.95-3.448c-0.954-0.765-1.946-1.149-2.981-1.149h-1.181v-2.483c0.456-0.124,0.975-0.227,1.554-0.311
			c0.579-0.082,1.158-0.164,1.74-0.248c0.577-0.083,1.127-0.145,1.645-0.187c0.518-0.041,0.964-0.062,1.337-0.062
			c1.615,0,2.969,0.279,4.068,0.839c1.097,0.559,2.122,1.428,3.073,2.608c0.952,1.181,1.927,2.671,2.92,4.472
			c0.991,1.802,2.194,3.925,3.603,6.366c1.367-2.149,2.606-4.107,3.728-5.869c1.118-1.758,2.194-3.26,3.23-4.501
			c1.032-1.242,2.049-2.205,3.042-2.889c0.992-0.682,2.069-1.024,3.229-1.024c0.786,0,1.512,0.072,2.175,0.217
			c0.66,0.148,1.345,0.364,2.05,0.653v2.671h-1.615c-1.078,0-2.11,0.352-3.106,1.057c-0.992,0.705-2.008,1.708-3.044,3.011
			c-1.031,1.305-2.132,2.888-3.288,4.751C504.865,48.041,503.561,50.114,502.111,52.391z"/>
	</g>
</g>
<g>
	<g>
		
			<linearGradient id="SVGID_1_" gradientUnits="userSpaceOnUse" x1="-128" y1="609.9375" x2="-128" y2="565.5469" gradientTransform="matrix(1 0 0 1 232 -523.875)">
			<stop  offset="0" style="stop-color:#3387FF"/>
			<stop  offset="1" style="stop-color:#60B0E2"/>
		</linearGradient>
		<path fill="url(#SVGID_1_)" d="M93.984,52.837L61.5,58.607v15.811c0,6.48,6.26,11.645,12.743,11.645h61.618
			c6.481,0,10.639-5.164,10.639-11.645V41.672l-43.445,32.143L93.984,52.837z"/>
		
			<linearGradient id="SVGID_2_" gradientUnits="userSpaceOnUse" x1="-128" y1="569.5918" x2="-128" y2="524.9385" gradientTransform="matrix(1 0 0 1 232 -523.875)">
			<stop  offset="0" style="stop-color:#3387FF"/>
			<stop  offset="1" style="stop-color:#60B0E2"/>
		</linearGradient>
		<path fill="url(#SVGID_2_)" d="M135.861,1.063H74.243C67.76,1.063,61.5,6.317,61.5,12.799v32.918l46.292-33.481l4.501,20.978
			l34.207-5.807V12.799C146.5,6.317,142.343,1.063,135.861,1.063z"/>
	</g>
	<g>
		<polygon fill="#338DC9" points="102.99,80.02 146.5,48.146 146.5,41.942 102.99,73.814 93.552,52.837 61.5,58.607 61.5,64.814 
			93.552,59.043 		"/>
	</g>
</g>
<g>
	<g>
		<path fill="#3F3F3F" d="M240.327,166.801l-5.218-48.509l-22.36,48.509h-3.976l-24.285-48.509l-4.286,48.509h-5.652l6.522-64.037
			h5.218L212.189,155l24.287-52.236h5.279l7.081,64.037H240.327z"/>
		<path fill="#3F3F3F" d="M276.175,167.607c-6.667,0-11.771-1.873-15.311-5.621c-3.541-3.747-5.312-9.223-5.312-16.43
			c0-3.395,0.436-6.47,1.305-9.222c0.869-2.755,2.174-5.085,3.912-6.989c1.738-1.902,3.893-3.373,6.459-4.41
			c2.567-1.033,5.549-1.552,8.944-1.552c3.354,0,6.313,0.488,8.882,1.459c2.567,0.974,4.721,2.402,6.459,4.286
			c1.739,1.885,3.043,4.191,3.912,6.926c0.87,2.732,1.305,5.859,1.305,9.379c0,3.438-0.435,6.521-1.305,9.256
			c-0.869,2.73-2.173,5.062-3.912,6.986c-1.738,1.928-3.894,3.396-6.459,4.409C282.488,167.098,279.529,167.607,276.175,167.607z
			 M264.436,145.495c0,3.106,0.217,5.757,0.653,7.95c0.435,2.197,1.117,3.996,2.05,5.404c0.933,1.407,2.131,2.443,3.603,3.104
			c1.47,0.664,3.239,0.994,5.312,0.994c1.696,0,3.168-0.165,4.409-0.498c1.242-0.33,2.484-0.952,3.728-1.862
			c1.449-1.076,2.424-2.949,2.918-5.62c0.498-2.672,0.746-5.808,0.746-9.411c0-6.045-0.922-10.468-2.764-13.261
			c-1.843-2.795-4.771-4.19-8.787-4.19c-1.658,0-3.139,0.164-4.441,0.496c-1.305,0.332-2.537,0.912-3.696,1.739
			c-0.704,0.498-1.284,1.253-1.739,2.267c-0.455,1.018-0.838,2.197-1.149,3.541c-0.311,1.347-0.528,2.826-0.651,4.441
			C264.498,142.205,264.436,143.839,264.436,145.495z"/>
		<path fill="#3F3F3F" d="M332.677,131.583c-0.786-0.372-1.72-0.767-2.795-1.181c-1.077-0.412-2.185-0.776-3.323-1.088
			c-1.139-0.31-2.258-0.568-3.354-0.775c-1.098-0.207-2.04-0.311-2.828-0.311c-0.992,0-1.977,0.166-2.949,0.498
			c-0.973,0.33-1.937,0.912-2.889,1.739c-0.456,0.412-0.9,0.974-1.335,1.675c-0.435,0.707-0.819,1.668-1.149,2.892
			c-0.332,1.221-0.59,2.741-0.777,4.565c-0.187,1.822-0.279,4.036-0.279,6.646c0,2.981,0.227,5.467,0.684,7.452
			c0.457,1.988,1.149,3.572,2.079,4.75c0.933,1.182,2.093,2.021,3.479,2.519s2.99,0.745,4.813,0.745
			c2.069,0,4.223-0.248,6.458-0.745c2.238-0.496,4.265-1.159,6.091-1.987l1.116,2.547c-1.077,0.787-2.243,1.555-3.509,2.297
			c-1.266,0.746-2.6,1.398-4.007,1.959c-1.407,0.559-2.88,1.003-4.411,1.337c-1.531,0.329-3.127,0.495-4.781,0.495
			c-2.359,0-4.576-0.37-6.646-1.116c-2.069-0.746-3.871-1.946-5.401-3.604c-1.532-1.652-2.733-3.818-3.603-6.49
			c-0.871-2.67-1.305-5.91-1.305-9.719c0-3.644,0.455-6.904,1.367-9.783c0.91-2.877,2.244-5.319,4.006-7.328
			c1.76-2.008,3.943-3.541,6.553-4.598c2.609-1.056,5.611-1.582,9.006-1.582c2.031,0,4.08,0.114,6.15,0.342
			c2.07,0.227,3.977,0.506,5.715,0.838L332.677,131.583z"/>
		<path fill="#3F3F3F" d="M350.895,166.801h-8.387V97.111l8.387-2.112v42.36c0,0.293,0,0.695,0,1.213
			c0,0.517-0.013,1.054-0.031,1.613c-0.021,0.56-0.043,1.086-0.063,1.584c-0.02,0.496-0.031,0.869-0.031,1.116
			c1.117-1.282,2.328-2.64,3.635-4.067c1.304-1.428,2.586-2.826,3.851-4.192c1.263-1.366,2.463-2.64,3.603-3.819
			c1.139-1.181,2.121-2.164,2.949-2.951c1.367-1.281,2.661-2.275,3.883-2.979c1.223-0.706,2.785-1.058,4.688-1.058
			c0.622,0,1.336,0.041,2.142,0.123c0.811,0.084,1.398,0.228,1.771,0.435v2.608h-0.248c-0.912,0-1.752,0.094-2.518,0.279
			c-0.767,0.188-1.51,0.469-2.235,0.84s-1.46,0.851-2.206,1.43c-0.744,0.578-1.552,1.264-2.421,2.05
			c-0.415,0.372-1.036,0.972-1.863,1.801s-1.655,1.679-2.483,2.548c-0.993,1.032-2.049,2.108-3.166,3.229
			c0.703,1.117,1.49,2.492,2.358,4.131c0.869,1.636,1.812,3.363,2.827,5.186c1.014,1.823,2.092,3.625,3.229,5.404
			c1.139,1.78,2.34,3.395,3.604,4.844c1.262,1.45,2.566,2.623,3.913,3.512c1.344,0.89,2.742,1.337,4.19,1.337h0.621v2.795
			c-0.912,0.332-1.987,0.599-3.229,0.807c-1.242,0.207-2.445,0.312-3.603,0.312c-2.235,0-4.203-0.674-5.9-2.019
			c-1.697-1.346-3.291-3.096-4.782-5.249c-1.489-2.152-2.938-4.586-4.347-7.298s-2.941-5.414-4.598-8.104l-3.541,3.539v18.446
			L350.895,166.801L350.895,166.801z"/>
		<path fill="#3F3F3F" d="M428.624,149.596c0,2.816-0.426,5.321-1.271,7.518c-0.853,2.195-2.175,4.068-3.978,5.621
			c-1.802,1.553-4.131,2.731-6.988,3.539c-2.855,0.809-6.271,1.211-10.248,1.211c-1.325,0-2.795-0.021-4.409-0.062
			c-1.614-0.043-3.262-0.104-4.938-0.187c-1.676-0.086-3.321-0.188-4.938-0.313c-1.614-0.123-3.082-0.248-4.408-0.373v-62.92
			c2.482-0.289,5.123-0.497,7.919-0.621c2.795-0.124,5.58-0.186,8.354-0.186c3.395,0,6.438,0.291,9.129,0.869
			c2.691,0.58,4.989,1.471,6.896,2.672s3.364,2.763,4.379,4.688c1.015,1.926,1.521,4.215,1.521,6.863
			c0,2.152-0.342,4.059-1.024,5.714c-0.683,1.656-1.596,3.086-2.733,4.286c-1.138,1.201-2.441,2.186-3.911,2.951
			c-1.472,0.767-2.972,1.335-4.503,1.708v0.187c2.566,0.539,4.805,1.336,6.709,2.391c1.903,1.059,3.479,2.311,4.721,3.76
			c1.242,1.447,2.174,3.084,2.796,4.906C428.314,145.643,428.624,147.568,428.624,149.596z M416.7,118.912
			c0-2.07-0.321-3.829-0.964-5.28c-0.644-1.448-1.553-2.639-2.73-3.571c-1.181-0.932-2.621-1.615-4.318-2.05
			c-1.697-0.434-3.603-0.651-5.713-0.651c-0.955,0-1.761,0.011-2.423,0.031c-0.663,0.021-1.253,0.053-1.77,0.094
			c-0.521,0.041-0.986,0.084-1.398,0.123c-0.414,0.043-0.852,0.084-1.302,0.123v23.106h8.259c1.697,0,3.24-0.155,4.627-0.467
			c1.389-0.31,2.557-0.713,3.513-1.21c0.454-0.249,0.929-0.611,1.429-1.087c0.496-0.476,0.951-1.12,1.365-1.929
			c0.413-0.808,0.756-1.801,1.024-2.98C416.565,121.984,416.7,120.57,416.7,118.912z M419.619,149.348
			c0-2.524-0.426-4.679-1.273-6.461c-0.85-1.779-1.986-3.229-3.417-4.348c-1.428-1.119-3.095-1.928-4.999-2.423
			c-1.904-0.497-3.912-0.746-6.024-0.746h-7.826v26.896c0.912,0.084,2.121,0.195,3.634,0.342c1.51,0.146,3.177,0.217,5,0.217
			c0.91,0,1.863-0.03,2.856-0.094c0.993-0.061,1.956-0.162,2.889-0.31c0.932-0.146,1.791-0.321,2.58-0.528
			c0.783-0.207,1.428-0.455,1.925-0.746c0.538-0.289,1.075-0.683,1.616-1.181c0.537-0.498,1.031-1.198,1.487-2.11
			c0.457-0.91,0.827-2.051,1.119-3.418C419.474,153.074,419.619,151.375,419.619,149.348z"/>
		<path fill="#3F3F3F" d="M454.43,167.607c-6.667,0-11.77-1.873-15.31-5.621c-3.541-3.747-5.312-9.223-5.312-16.43
			c0-3.395,0.435-6.47,1.303-9.222c0.869-2.755,2.175-5.085,3.913-6.989c1.739-1.902,3.893-3.373,6.46-4.41
			c2.567-1.033,5.549-1.552,8.943-1.552c3.354,0,6.313,0.488,8.881,1.459c2.567,0.974,4.722,2.402,6.461,4.286
			c1.739,1.885,3.043,4.191,3.912,6.926c0.87,2.732,1.305,5.859,1.305,9.379c0,3.438-0.436,6.521-1.305,9.256
			c-0.869,2.73-2.173,5.062-3.912,6.986c-1.739,1.928-3.894,3.396-6.461,4.409C460.744,167.102,457.784,167.607,454.43,167.607z
			 M442.69,145.495c0,3.106,0.219,5.757,0.649,7.95c0.437,2.197,1.12,3.996,2.051,5.404c0.933,1.407,2.135,2.443,3.603,3.104
			c1.472,0.664,3.24,0.994,5.312,0.994c1.696,0,3.167-0.165,4.409-0.498c1.242-0.33,2.483-0.952,3.729-1.862
			c1.447-1.076,2.422-2.949,2.919-5.62c0.497-2.672,0.747-5.808,0.747-9.411c0-6.045-0.923-10.468-2.767-13.261
			c-1.842-2.795-4.771-4.19-8.787-4.19c-1.654,0-3.138,0.164-4.44,0.496c-1.304,0.332-2.537,0.912-3.695,1.739
			c-0.705,0.498-1.284,1.253-1.739,2.267c-0.456,1.018-0.839,2.197-1.148,3.541c-0.313,1.347-0.527,2.826-0.652,4.441
			C442.753,142.205,442.69,143.839,442.69,145.495z"/>
		<path fill="#3F3F3F" d="M502.111,142.391c1.572,2.857,3.096,5.579,4.564,8.168c1.471,2.59,2.878,4.866,4.225,6.834
			c1.345,1.965,2.617,3.539,3.818,4.719c1.199,1.18,2.339,1.771,3.417,1.771c0.454,0,0.796-0.012,1.024-0.031
			c0.226-0.021,0.505-0.072,0.839-0.158v2.484c-0.828,0.291-1.833,0.528-3.012,0.715c-1.183,0.187-2.435,0.279-3.76,0.279
			c-1.78,0-3.322-0.396-4.628-1.18c-1.304-0.786-2.548-1.936-3.728-3.449c-1.18-1.511-2.39-3.386-3.632-5.621
			c-1.242-2.234-2.692-4.803-4.35-7.699c-1.366,2.193-2.682,4.356-3.942,6.49c-1.265,2.133-2.548,4.057-3.854,5.775
			c-1.302,1.719-2.7,3.105-4.189,4.162c-1.491,1.056-3.146,1.582-4.971,1.582c-1.449,0-2.855-0.291-4.223-0.869v-2.549h0.683
			c1.614,0,3.097-0.401,4.44-1.209c1.345-0.81,2.691-1.996,4.038-3.572c1.345-1.572,2.785-3.527,4.318-5.869
			c1.53-2.339,3.292-5.041,5.277-8.107c-1.615-2.896-3.044-5.466-4.287-7.699c-1.24-2.235-2.371-4.121-3.385-5.652
			c-1.016-1.532-1.998-2.682-2.95-3.448c-0.954-0.765-1.946-1.149-2.981-1.149h-1.181v-2.482c0.456-0.124,0.975-0.227,1.554-0.311
			c0.579-0.082,1.158-0.164,1.74-0.248c0.577-0.084,1.127-0.146,1.645-0.188c0.518-0.041,0.964-0.063,1.337-0.063
			c1.615,0,2.969,0.279,4.068,0.84c1.097,0.559,2.122,1.428,3.073,2.607c0.952,1.182,1.927,2.672,2.92,4.473
			c0.991,1.802,2.194,3.925,3.603,6.365c1.367-2.149,2.606-4.107,3.728-5.869c1.118-1.758,2.194-3.26,3.23-4.5
			c1.032-1.242,2.049-2.205,3.042-2.89c0.992-0.682,2.069-1.024,3.229-1.024c0.786,0,1.512,0.072,2.175,0.218
			c0.66,0.147,1.345,0.364,2.05,0.653v2.67h-1.615c-1.078,0-2.11,0.353-3.106,1.058c-0.992,0.705-2.008,1.708-3.044,3.011
			c-1.031,1.305-2.132,2.889-3.288,4.752C504.865,138.041,503.561,140.114,502.111,142.391z"/>
	</g>
</g>
<g>
	<g>
		
			<linearGradient id="SVGID_3_" gradientUnits="userSpaceOnUse" x1="-128" y1="699.9375" x2="-128" y2="655.5469" gradientTransform="matrix(1 0 0 1 232 -523.875)">
			<stop  offset="0" style="stop-color:#3387FF"/>
			<stop  offset="1" style="stop-color:#60B0E2"/>
		</linearGradient>
		<path fill="url(#SVGID_3_)" d="M93.984,142.837L61.5,148.607v15.811c0,6.48,6.26,11.645,12.743,11.645h61.618
			c6.481,0,10.639-5.164,10.639-11.645v-32.746l-43.445,32.143L93.984,142.837z"/>
		
			<linearGradient id="SVGID_4_" gradientUnits="userSpaceOnUse" x1="-128" y1="659.5918" x2="-128" y2="614.9375" gradientTransform="matrix(1 0 0 1 232 -523.875)">
			<stop  offset="0" style="stop-color:#3387FF"/>
			<stop  offset="1" style="stop-color:#60B0E2"/>
		</linearGradient>
		<path fill="url(#SVGID_4_)" d="M135.861,91.063H74.243c-6.483,0-12.743,5.254-12.743,11.736v32.918l46.292-33.48l4.501,20.978
			l34.207-5.807v-14.608C146.5,96.316,142.343,91.063,135.861,91.063z"/>
	</g>
	<g>
		<polygon fill="#338DC9" points="102.99,170.02 146.5,138.146 146.5,131.941 102.99,163.814 93.552,142.837 61.5,148.607 
			61.5,154.814 93.552,149.043 		"/>
	</g>
</g>
</svg>
