<?xml version="1.0" encoding="utf-8"?>
<!-- Generator: Adobe Illustrator 15.1.0, SVG Export Plug-In . SVG Version: 6.00 Build 0)  -->
<!DOCTYPE svg PUBLIC "-//W3C//DTD SVG 1.1//EN" "http://www.w3.org/Graphics/SVG/1.1/DTD/svg11.dtd">
<svg version="1.1" id="Layer_1" xmlns="http://www.w3.org/2000/svg" xmlns:xlink="http://www.w3.org/1999/xlink" x="0px" y="0px"
	 width="530px" height="87.125px" viewBox="0 0 530 87.125" enable-background="new 0 0 530 87.125" xml:space="preserve">
<g>
	<g>
		<path fill="#CCCCCC" d="M240.327,76.801l-5.218-48.509l-22.36,48.509h-3.976l-24.285-48.509l-4.286,48.509h-5.652l6.522-64.037
			h5.218L212.189,65l24.287-52.236h5.279l7.081,64.037H240.327z"/>
		<path fill="#CCCCCC" d="M276.175,77.607c-6.667,0-11.771-1.872-15.311-5.62c-3.541-3.748-5.312-9.224-5.312-16.43
			c0-3.395,0.436-6.47,1.305-9.222c0.869-2.755,2.174-5.085,3.912-6.989c1.738-1.903,3.893-3.374,6.46-4.41
			c2.567-1.033,5.548-1.552,8.944-1.552c3.354,0,6.313,0.488,8.881,1.459c2.568,0.974,4.721,2.402,6.459,4.286
			c1.74,1.885,3.044,4.192,3.913,6.926c0.87,2.732,1.304,5.859,1.304,9.379c0,3.438-0.434,6.521-1.304,9.255
			c-0.869,2.731-2.173,5.062-3.913,6.987c-1.738,1.927-3.893,3.396-6.459,4.409S279.529,77.607,276.175,77.607z M264.436,55.495
			c0,3.106,0.217,5.757,0.653,7.951c0.435,2.196,1.117,3.996,2.049,5.404c0.933,1.407,2.132,2.443,3.603,3.104
			c1.47,0.664,3.24,0.994,5.311,0.994c1.697,0,3.168-0.165,4.41-0.498c1.242-0.33,2.484-0.952,3.727-1.862
			c1.449-1.076,2.424-2.95,2.919-5.62c0.497-2.672,0.746-5.808,0.746-9.411c0-6.045-0.922-10.468-2.764-13.261
			c-1.843-2.795-4.772-4.191-8.788-4.191c-1.658,0-3.138,0.164-4.441,0.497c-1.305,0.331-2.537,0.912-3.696,1.739
			c-0.704,0.498-1.284,1.253-1.739,2.267c-0.456,1.017-0.838,2.196-1.149,3.541c-0.311,1.346-0.528,2.826-0.651,4.441
			C264.498,52.205,264.436,53.839,264.436,55.495z"/>
		<path fill="#CCCCCC" d="M332.677,41.583c-0.786-0.372-1.72-0.767-2.795-1.18c-1.078-0.413-2.185-0.777-3.324-1.088
			c-1.138-0.31-2.257-0.569-3.353-0.776c-1.098-0.207-2.04-0.311-2.828-0.311c-0.992,0-1.977,0.166-2.949,0.498
			c-0.973,0.331-1.937,0.912-2.889,1.74c-0.456,0.412-0.9,0.973-1.335,1.675c-0.435,0.707-0.819,1.667-1.149,2.891
			c-0.332,1.221-0.59,2.742-0.777,4.565s-0.28,4.037-0.28,6.646c0,2.981,0.226,5.467,0.684,7.453
			c0.456,1.987,1.149,3.571,2.079,4.75c0.932,1.181,2.093,2.021,3.479,2.518c1.387,0.497,2.991,0.745,4.813,0.745
			c2.069,0,4.223-0.248,6.458-0.745c2.238-0.496,4.265-1.16,6.09-1.987l1.117,2.547c-1.077,0.786-2.244,1.554-3.509,2.297
			c-1.265,0.746-2.6,1.398-4.007,1.958c-1.407,0.559-2.88,1.003-4.411,1.337c-1.531,0.33-3.127,0.496-4.781,0.496
			c-2.359,0-4.576-0.371-6.646-1.117s-3.872-1.946-5.402-3.604c-1.533-1.653-2.733-3.819-3.603-6.491
			c-0.87-2.669-1.304-5.91-1.304-9.719c0-3.643,0.455-6.903,1.367-9.782c0.91-2.878,2.244-5.32,4.006-7.329
			c1.76-2.007,3.943-3.54,6.553-4.597c2.609-1.056,5.611-1.583,9.006-1.583c2.03,0,4.08,0.115,6.149,0.342
			c2.071,0.227,3.977,0.506,5.715,0.838L332.677,41.583z"/>
		<path fill="#CCCCCC" d="M350.894,76.801h-8.386V7.111l8.386-2.112v42.36c0,0.293,0,0.695,0,1.213c0,0.517-0.012,1.054-0.031,1.614
			c-0.021,0.559-0.042,1.086-0.062,1.583c-0.02,0.496-0.032,0.869-0.032,1.117c1.118-1.282,2.329-2.64,3.635-4.068
			c1.304-1.428,2.586-2.826,3.851-4.192c1.262-1.366,2.463-2.64,3.603-3.82c1.138-1.18,2.121-2.164,2.949-2.95
			c1.367-1.282,2.661-2.276,3.882-2.98c1.223-0.706,2.785-1.058,4.689-1.058c0.622,0,1.336,0.042,2.142,0.124
			c0.81,0.084,1.398,0.227,1.771,0.434v2.609h-0.248c-0.912,0-1.752,0.093-2.517,0.279c-0.767,0.188-1.511,0.468-2.236,0.84
			c-0.725,0.371-1.46,0.85-2.206,1.429c-0.744,0.579-1.552,1.264-2.421,2.05c-0.415,0.372-1.036,0.972-1.863,1.801
			c-0.828,0.829-1.656,1.678-2.483,2.547c-0.994,1.033-2.049,2.109-3.167,3.229c0.703,1.118,1.49,2.493,2.359,4.131
			c0.869,1.636,1.811,3.363,2.827,5.186c1.014,1.823,2.091,3.625,3.229,5.404c1.138,1.78,2.339,3.394,3.603,4.844
			c1.262,1.45,2.566,2.622,3.913,3.511c1.344,0.89,2.742,1.337,4.191,1.337h0.621v2.795c-0.913,0.332-1.988,0.599-3.23,0.807
			c-1.242,0.207-2.445,0.312-3.603,0.312c-2.235,0-4.203-0.674-5.9-2.019c-1.697-1.346-3.291-3.096-4.782-5.249
			c-1.49-2.152-2.939-4.586-4.347-7.298s-2.941-5.414-4.598-8.105l-3.541,3.54v18.446L350.894,76.801L350.894,76.801z"/>
		<path fill="#CCCCCC" d="M428.624,59.596c0,2.816-0.426,5.321-1.271,7.517c-0.852,2.195-2.174,4.069-3.977,5.621
			c-1.802,1.553-4.131,2.732-6.988,3.54c-2.856,0.808-6.272,1.211-10.248,1.211c-1.326,0-2.795-0.021-4.41-0.062
			c-1.614-0.043-3.261-0.104-4.938-0.186c-1.676-0.086-3.322-0.188-4.938-0.313c-1.615-0.123-3.083-0.248-4.409-0.373v-62.92
			c2.483-0.289,5.123-0.497,7.919-0.621c2.795-0.124,5.58-0.186,8.354-0.186c3.394,0,6.438,0.291,9.129,0.869
			c2.691,0.58,4.989,1.471,6.895,2.672s3.364,2.763,4.379,4.688s1.522,4.214,1.522,6.863c0,2.153-0.342,4.059-1.025,5.714
			c-0.682,1.656-1.596,3.086-2.733,4.286c-1.138,1.201-2.442,2.185-3.911,2.951c-1.472,0.767-2.972,1.335-4.503,1.708v0.187
			c2.566,0.539,4.804,1.336,6.709,2.391c1.903,1.058,3.478,2.31,4.72,3.759c1.242,1.448,2.174,3.084,2.796,4.907
			C428.314,55.643,428.624,57.568,428.624,59.596z M416.7,28.912c0-2.07-0.321-3.829-0.964-5.28
			c-0.643-1.449-1.552-2.639-2.73-3.571c-1.181-0.932-2.621-1.616-4.319-2.05c-1.697-0.434-3.602-0.652-5.712-0.652
			c-0.955,0-1.761,0.011-2.423,0.032c-0.663,0.021-1.253,0.053-1.77,0.093c-0.52,0.042-0.986,0.084-1.398,0.124
			c-0.414,0.042-0.852,0.084-1.302,0.123v23.106h8.259c1.697,0,3.24-0.156,4.627-0.467c1.388-0.31,2.556-0.713,3.512-1.21
			c0.455-0.249,0.929-0.611,1.429-1.087c0.496-0.476,0.951-1.12,1.365-1.928c0.414-0.808,0.756-1.801,1.025-2.981
			C416.565,31.985,416.7,30.57,416.7,28.912z M419.619,59.347c0-2.524-0.426-4.678-1.273-6.46c-0.85-1.78-1.987-3.23-3.417-4.348
			c-1.428-1.119-3.095-1.928-4.999-2.423c-1.905-0.497-3.912-0.746-6.025-0.746h-7.826v26.895c0.912,0.084,2.121,0.196,3.634,0.342
			c1.51,0.146,3.177,0.217,5,0.217c0.91,0,1.863-0.03,2.856-0.093c0.994-0.061,1.956-0.163,2.889-0.31
			c0.932-0.146,1.791-0.321,2.58-0.529c0.783-0.207,1.428-0.454,1.925-0.745c0.538-0.29,1.075-0.683,1.616-1.181
			c0.537-0.498,1.031-1.199,1.487-2.111c0.457-0.91,0.828-2.05,1.12-3.418C419.474,63.074,419.619,61.375,419.619,59.347z"/>
		<path fill="#CCCCCC" d="M454.43,77.607c-6.667,0-11.77-1.872-15.31-5.62c-3.541-3.748-5.311-9.224-5.311-16.43
			c0-3.395,0.434-6.47,1.302-9.222c0.87-2.755,2.175-5.085,3.913-6.989c1.74-1.903,3.893-3.374,6.46-4.41
			c2.568-1.033,5.549-1.552,8.944-1.552c3.354,0,6.313,0.488,8.881,1.459c2.567,0.974,4.721,2.402,6.461,4.286
			c1.739,1.885,3.043,4.192,3.912,6.926c0.87,2.732,1.304,5.859,1.304,9.379c0,3.438-0.435,6.521-1.304,9.255
			c-0.869,2.731-2.173,5.062-3.912,6.987c-1.74,1.927-3.894,3.396-6.461,4.409C460.744,77.101,457.784,77.607,454.43,77.607z
			 M442.69,55.495c0,3.106,0.219,5.757,0.65,7.951c0.436,2.196,1.12,3.996,2.051,5.404c0.932,1.407,2.134,2.443,3.602,3.104
			c1.472,0.664,3.24,0.994,5.312,0.994c1.696,0,3.167-0.165,4.409-0.498c1.242-0.33,2.483-0.952,3.728-1.862
			c1.448-1.076,2.422-2.95,2.919-5.62c0.497-2.672,0.747-5.808,0.747-9.411c0-6.045-0.922-10.468-2.766-13.261
			c-1.842-2.795-4.771-4.191-8.787-4.191c-1.655,0-3.138,0.164-4.441,0.497c-1.303,0.331-2.537,0.912-3.695,1.739
			c-0.705,0.498-1.284,1.253-1.739,2.267c-0.456,1.017-0.839,2.196-1.149,3.541c-0.312,1.346-0.527,2.826-0.652,4.441
			C442.753,52.205,442.69,53.839,442.69,55.495z"/>
		<path fill="#CCCCCC" d="M502.111,52.391c1.573,2.857,3.096,5.579,4.565,8.168c1.471,2.589,2.878,4.866,4.224,6.833
			c1.345,1.966,2.618,3.54,3.819,4.72c1.199,1.179,2.339,1.771,3.417,1.771c0.454,0,0.796-0.012,1.024-0.032
			c0.226-0.021,0.505-0.072,0.839-0.157v2.484c-0.828,0.291-1.833,0.528-3.012,0.714c-1.182,0.187-2.434,0.28-3.759,0.28
			c-1.781,0-3.323-0.396-4.628-1.18c-1.304-0.786-2.548-1.936-3.728-3.449c-1.18-1.511-2.39-3.386-3.632-5.621
			s-2.692-4.803-4.349-7.7c-1.367,2.194-2.682,4.357-3.943,6.491c-1.264,2.133-2.548,4.057-3.853,5.775
			c-1.302,1.719-2.7,3.106-4.19,4.162c-1.491,1.056-3.146,1.583-4.97,1.583c-1.45,0-2.856-0.291-4.223-0.87v-2.548h0.682
			c1.615,0,3.097-0.402,4.441-1.21c1.345-0.809,2.691-1.996,4.038-3.572c1.345-1.572,2.785-3.527,4.318-5.869
			c1.531-2.339,3.292-5.041,5.278-8.107c-1.615-2.897-3.044-5.466-4.287-7.7c-1.241-2.235-2.371-4.12-3.385-5.652
			c-1.016-1.532-1.998-2.681-2.95-3.448c-0.954-0.765-1.947-1.149-2.982-1.149h-1.18v-2.483c0.456-0.124,0.974-0.227,1.553-0.311
			c0.579-0.082,1.159-0.164,1.74-0.248c0.578-0.083,1.128-0.145,1.645-0.187c0.518-0.041,0.964-0.062,1.337-0.062
			c1.615,0,2.969,0.279,4.068,0.839c1.097,0.559,2.122,1.428,3.074,2.608c0.952,1.181,1.926,2.671,2.92,4.472
			c0.991,1.802,2.194,3.925,3.602,6.366c1.367-2.15,2.607-4.108,3.728-5.869c1.118-1.758,2.194-3.26,3.23-4.501
			c1.032-1.242,2.049-2.205,3.042-2.889c0.992-0.682,2.069-1.024,3.229-1.024c0.786,0,1.511,0.072,2.174,0.217
			c0.661,0.148,1.345,0.364,2.05,0.653v2.671h-1.615c-1.078,0-2.11,0.352-3.106,1.057c-0.993,0.705-2.008,1.708-3.044,3.011
			c-1.032,1.305-2.132,2.888-3.289,4.751C504.865,48.041,503.561,50.114,502.111,52.391z"/>
	</g>
</g>
<g>
	<g>
		
			<linearGradient id="SVGID_1_" gradientUnits="userSpaceOnUse" x1="-12" y1="80.0625" x2="-12" y2="124.4531" gradientTransform="matrix(1 0 0 -1 116 166.125)">
			<stop  offset="0" style="stop-color:#3387FF"/>
			<stop  offset="1" style="stop-color:#60B0E2"/>
		</linearGradient>
		<path fill="url(#SVGID_1_)" d="M93.984,52.837L61.5,58.607v15.811c0,6.48,6.26,11.645,12.743,11.645h61.618
			c6.481,0,10.639-5.164,10.639-11.645V41.672l-43.445,32.143L93.984,52.837z"/>
		
			<linearGradient id="SVGID_2_" gradientUnits="userSpaceOnUse" x1="-12" y1="120.4082" x2="-12" y2="165.0615" gradientTransform="matrix(1 0 0 -1 116 166.125)">
			<stop  offset="0" style="stop-color:#3387FF"/>
			<stop  offset="1" style="stop-color:#60B0E2"/>
		</linearGradient>
		<path fill="url(#SVGID_2_)" d="M135.861,1.063H74.243C67.76,1.063,61.5,6.317,61.5,12.799v32.918l46.292-33.481l4.501,20.978
			l34.207-5.807V12.799C146.5,6.317,142.343,1.063,135.861,1.063z"/>
	</g>
	<g>
		<polygon fill="#338DC9" points="102.99,80.02 146.5,48.146 146.5,41.942 102.99,73.814 93.552,52.837 61.5,58.607 61.5,64.814 
			93.552,59.043 		"/>
	</g>
</g>
</svg>
